<mxfile host="app.diagrams.net" modified="2022-09-07T04:03:01.299Z" agent="5.0 (Macintosh)" etag="gzE_WiuMPnW1Y7-SFMUI" version="20.2.8" type="github">
  <diagram id="xMZvqUQl98MtYuGiwL1R" name="Page-1">
    <mxGraphModel dx="1816" dy="1520" grid="1" gridSize="10" guides="1" tooltips="1" connect="1" arrows="1" fold="1" page="1" pageScale="1" pageWidth="850" pageHeight="1100" math="0" shadow="0">
      <root>
        <mxCell id="0" />
        <mxCell id="1" parent="0" />
      </root>
    </mxGraphModel>
  </diagram>
</mxfile>
